<mxfile host="app.diagrams.net" modified="2024-07-01T08:26:17.688Z" agent="Mozilla/5.0 (Macintosh; Intel Mac OS X 10_15_7) AppleWebKit/537.36 (KHTML, like Gecko) Chrome/126.0.0.0 Safari/537.36" etag="wD3PjAAPMcsDdgRMnheT" version="24.6.4" type="github">
  <diagram name="Page-1" id="74e2e168-ea6b-b213-b513-2b3c1d86103e">
    <mxGraphModel dx="1306" dy="715" grid="1" gridSize="10" guides="1" tooltips="1" connect="1" arrows="1" fold="1" page="1" pageScale="1" pageWidth="1100" pageHeight="850" background="none" math="0" shadow="0">
      <root>
        <mxCell id="0" />
        <mxCell id="1" parent="0" />
        <mxCell id="77e6c97f196da883-1" value="Pool" style="swimlane;html=1;childLayout=stackLayout;startSize=20;rounded=0;shadow=0;labelBackgroundColor=none;strokeWidth=1;fontFamily=Verdana;fontSize=10;align=left;" parent="1" vertex="1">
          <mxGeometry x="70" y="56" width="1120" height="750" as="geometry" />
        </mxCell>
        <mxCell id="77e6c97f196da883-2" value="" style="swimlane;html=1;startSize=20;align=center;fontSize=10;" parent="77e6c97f196da883-1" vertex="1">
          <mxGeometry y="20" width="160" height="730" as="geometry" />
        </mxCell>
        <mxCell id="77e6c97f196da883-8" value="start" style="rounded=1;html=1;shadow=0;labelBackgroundColor=none;strokeWidth=1;fontFamily=Verdana;fontSize=10;align=center;labelBorderColor=none;" parent="77e6c97f196da883-2" vertex="1">
          <mxGeometry x="20" y="65" width="100" height="60" as="geometry" />
        </mxCell>
        <mxCell id="77e6c97f196da883-3" value="lk" style="swimlane;html=1;startSize=20;swimlaneLine=1;align=center;fontSize=10;" parent="77e6c97f196da883-1" vertex="1">
          <mxGeometry x="160" y="20" width="280" height="730" as="geometry" />
        </mxCell>
        <mxCell id="BYtep4n3CMpfXUwZE0sk-3" value="" style="edgeStyle=orthogonalEdgeStyle;rounded=0;orthogonalLoop=1;jettySize=auto;html=1;entryX=0.5;entryY=0;entryDx=0;entryDy=0;align=left;fontSize=10;" edge="1" parent="77e6c97f196da883-3" source="BYtep4n3CMpfXUwZE0sk-1">
          <mxGeometry relative="1" as="geometry">
            <mxPoint x="80" y="190" as="targetPoint" />
          </mxGeometry>
        </mxCell>
        <mxCell id="BYtep4n3CMpfXUwZE0sk-8" value="No" style="edgeLabel;html=1;align=left;verticalAlign=middle;resizable=0;points=[];fontSize=10;" vertex="1" connectable="0" parent="BYtep4n3CMpfXUwZE0sk-3">
          <mxGeometry x="-0.2769" y="1" relative="1" as="geometry">
            <mxPoint as="offset" />
          </mxGeometry>
        </mxCell>
        <mxCell id="BYtep4n3CMpfXUwZE0sk-1" value="boot_flag == 0?" style="rhombus;whiteSpace=wrap;html=1;rounded=0;shadow=0;labelBackgroundColor=none;strokeWidth=1;fontFamily=Verdana;fontSize=10;align=center;labelBorderColor=none;strokeColor=default;textShadow=1;" vertex="1" parent="77e6c97f196da883-3">
          <mxGeometry x="20" y="65" width="120" height="60" as="geometry" />
        </mxCell>
        <mxCell id="BYtep4n3CMpfXUwZE0sk-18" value="" style="edgeStyle=orthogonalEdgeStyle;rounded=0;orthogonalLoop=1;jettySize=auto;html=1;align=left;fontSize=10;" edge="1" parent="77e6c97f196da883-3" target="BYtep4n3CMpfXUwZE0sk-17">
          <mxGeometry relative="1" as="geometry">
            <mxPoint x="80" y="250" as="sourcePoint" />
          </mxGeometry>
        </mxCell>
        <mxCell id="77e6c97f196da883-12" value="set boot_flag=1" style="rounded=1;whiteSpace=wrap;html=1;shadow=0;labelBackgroundColor=none;strokeWidth=1;fontFamily=Verdana;fontSize=10;align=left;textShadow=1;" parent="77e6c97f196da883-3" vertex="1">
          <mxGeometry x="160" y="190" width="100" height="60" as="geometry" />
        </mxCell>
        <mxCell id="BYtep4n3CMpfXUwZE0sk-7" style="edgeStyle=orthogonalEdgeStyle;rounded=0;orthogonalLoop=1;jettySize=auto;html=1;exitX=1;exitY=0.5;exitDx=0;exitDy=0;entryX=0.61;entryY=0;entryDx=0;entryDy=0;entryPerimeter=0;align=left;fontSize=10;" edge="1" parent="77e6c97f196da883-3" source="BYtep4n3CMpfXUwZE0sk-1" target="77e6c97f196da883-12">
          <mxGeometry relative="1" as="geometry" />
        </mxCell>
        <mxCell id="BYtep4n3CMpfXUwZE0sk-35" value="Yes" style="edgeLabel;html=1;align=center;verticalAlign=middle;resizable=0;points=[];" vertex="1" connectable="0" parent="BYtep4n3CMpfXUwZE0sk-7">
          <mxGeometry x="-0.5" y="3" relative="1" as="geometry">
            <mxPoint y="1" as="offset" />
          </mxGeometry>
        </mxCell>
        <mxCell id="BYtep4n3CMpfXUwZE0sk-17" value="1.save revered sram lk log to persis partition&lt;div style=&quot;font-size: 10px;&quot;&gt;&lt;br style=&quot;font-size: 10px;&quot;&gt;&lt;div style=&quot;font-size: 10px;&quot;&gt;2.save servered dram uboot log to persist partition&lt;/div&gt;&lt;/div&gt;" style="whiteSpace=wrap;html=1;fontSize=10;fontFamily=Verdana;rounded=1;shadow=0;labelBackgroundColor=none;strokeWidth=1;labelBorderColor=none;align=left;" vertex="1" parent="77e6c97f196da883-3">
          <mxGeometry x="8" y="327" width="267" height="53" as="geometry" />
        </mxCell>
        <mxCell id="BYtep4n3CMpfXUwZE0sk-33" value="dump bootloader log to flash" style="rounded=1;whiteSpace=wrap;html=1;shadow=0;labelBackgroundColor=none;strokeWidth=1;fontFamily=Verdana;fontSize=10;align=left;textShadow=1;" vertex="1" parent="77e6c97f196da883-3">
          <mxGeometry x="30" y="190" width="100" height="60" as="geometry" />
        </mxCell>
        <mxCell id="77e6c97f196da883-4" value="uboot" style="swimlane;html=1;startSize=20;align=center;fontSize=10;" parent="77e6c97f196da883-1" vertex="1">
          <mxGeometry x="440" y="20" width="160" height="730" as="geometry" />
        </mxCell>
        <mxCell id="BYtep4n3CMpfXUwZE0sk-25" value="print log to reserved dram" style="rounded=1;whiteSpace=wrap;html=1;shadow=0;labelBackgroundColor=none;strokeWidth=1;fontFamily=Verdana;fontSize=10;align=left;" vertex="1" parent="77e6c97f196da883-4">
          <mxGeometry x="30" y="190" width="100" height="60" as="geometry" />
        </mxCell>
        <mxCell id="77e6c97f196da883-5" value="kernel" style="swimlane;html=1;startSize=20;align=center;fontSize=10;" parent="77e6c97f196da883-1" vertex="1">
          <mxGeometry x="600" y="20" width="260" height="730" as="geometry" />
        </mxCell>
        <mxCell id="BYtep4n3CMpfXUwZE0sk-31" value="" style="edgeStyle=orthogonalEdgeStyle;rounded=0;orthogonalLoop=1;jettySize=auto;html=1;" edge="1" parent="77e6c97f196da883-5" source="BYtep4n3CMpfXUwZE0sk-24" target="77e6c97f196da883-15">
          <mxGeometry relative="1" as="geometry" />
        </mxCell>
        <mxCell id="BYtep4n3CMpfXUwZE0sk-24" value="create /proc/pl_lk for current&amp;nbsp; bootloader log" style="rounded=1;whiteSpace=wrap;html=1;shadow=0;labelBackgroundColor=none;strokeWidth=1;fontFamily=Verdana;fontSize=10;align=left;" vertex="1" parent="77e6c97f196da883-5">
          <mxGeometry x="15" y="200" width="230" height="40" as="geometry" />
        </mxCell>
        <mxCell id="77e6c97f196da883-15" value="create /proc/pl_lk_exp for lastboot bootloader&amp;nbsp; failed log" style="rounded=1;whiteSpace=wrap;html=1;shadow=0;labelBackgroundColor=none;strokeWidth=1;fontFamily=Verdana;fontSize=10;align=left;" parent="77e6c97f196da883-5" vertex="1">
          <mxGeometry x="15" y="274" width="230" height="36" as="geometry" />
        </mxCell>
        <mxCell id="BYtep4n3CMpfXUwZE0sk-13" value="clear boot_flag=0" style="rounded=1;whiteSpace=wrap;html=1;shadow=0;labelBackgroundColor=none;strokeWidth=1;fontFamily=Verdana;fontSize=10;align=left;" vertex="1" parent="77e6c97f196da883-5">
          <mxGeometry x="20" y="344" width="220" height="36" as="geometry" />
        </mxCell>
        <mxCell id="BYtep4n3CMpfXUwZE0sk-14" value="" style="edgeStyle=orthogonalEdgeStyle;rounded=0;orthogonalLoop=1;jettySize=auto;html=1;align=left;fontSize=10;" edge="1" parent="77e6c97f196da883-5" source="77e6c97f196da883-15" target="BYtep4n3CMpfXUwZE0sk-13">
          <mxGeometry relative="1" as="geometry" />
        </mxCell>
        <mxCell id="77e6c97f196da883-6" value="upload log" style="swimlane;html=1;startSize=20;align=center;fontSize=10;" parent="77e6c97f196da883-1" vertex="1">
          <mxGeometry x="860" y="20" width="210" height="730" as="geometry" />
        </mxCell>
        <mxCell id="BYtep4n3CMpfXUwZE0sk-21" value="" style="edgeStyle=orthogonalEdgeStyle;rounded=0;orthogonalLoop=1;jettySize=auto;html=1;" edge="1" parent="77e6c97f196da883-6" source="BYtep4n3CMpfXUwZE0sk-19">
          <mxGeometry relative="1" as="geometry">
            <mxPoint x="106" y="444" as="targetPoint" />
          </mxGeometry>
        </mxCell>
        <mxCell id="BYtep4n3CMpfXUwZE0sk-19" value="life_cycle_reason==&lt;br&gt;last_bootloader_failed?" style="rhombus;whiteSpace=wrap;html=1;rounded=0;shadow=0;labelBackgroundColor=none;strokeWidth=1;fontFamily=Verdana;fontSize=10;align=center;labelBorderColor=none;strokeColor=default;textShadow=1;fontColor=#e71313;" vertex="1" parent="77e6c97f196da883-6">
          <mxGeometry x="16" y="344" width="180" height="60" as="geometry" />
        </mxCell>
        <mxCell id="BYtep4n3CMpfXUwZE0sk-36" value="&lt;span style=&quot;color: rgb(231, 19, 19); text-align: center;&quot;&gt;print persist partition log to console-ram-oops-0&lt;/span&gt;" style="rounded=1;whiteSpace=wrap;html=1;shadow=0;labelBackgroundColor=none;strokeWidth=1;fontFamily=Verdana;fontSize=10;align=left;" vertex="1" parent="77e6c97f196da883-6">
          <mxGeometry x="16" y="444" width="180" height="60" as="geometry" />
        </mxCell>
        <mxCell id="BYtep4n3CMpfXUwZE0sk-2" value="" style="edgeStyle=orthogonalEdgeStyle;rounded=0;orthogonalLoop=1;jettySize=auto;html=1;align=left;fontSize=10;" edge="1" parent="77e6c97f196da883-1" source="77e6c97f196da883-8" target="BYtep4n3CMpfXUwZE0sk-1">
          <mxGeometry relative="1" as="geometry" />
        </mxCell>
        <mxCell id="BYtep4n3CMpfXUwZE0sk-26" value="" style="edgeStyle=orthogonalEdgeStyle;rounded=0;orthogonalLoop=1;jettySize=auto;html=1;" edge="1" parent="77e6c97f196da883-1" source="BYtep4n3CMpfXUwZE0sk-25" target="BYtep4n3CMpfXUwZE0sk-24">
          <mxGeometry relative="1" as="geometry" />
        </mxCell>
        <mxCell id="BYtep4n3CMpfXUwZE0sk-28" value="" style="edgeStyle=orthogonalEdgeStyle;rounded=0;orthogonalLoop=1;jettySize=auto;html=1;" edge="1" parent="77e6c97f196da883-1" source="77e6c97f196da883-12" target="BYtep4n3CMpfXUwZE0sk-25">
          <mxGeometry relative="1" as="geometry" />
        </mxCell>
        <mxCell id="BYtep4n3CMpfXUwZE0sk-32" style="edgeStyle=orthogonalEdgeStyle;rounded=0;orthogonalLoop=1;jettySize=auto;html=1;exitX=1;exitY=0.5;exitDx=0;exitDy=0;entryX=0.5;entryY=0;entryDx=0;entryDy=0;" edge="1" parent="77e6c97f196da883-1" source="77e6c97f196da883-15" target="BYtep4n3CMpfXUwZE0sk-19">
          <mxGeometry relative="1" as="geometry" />
        </mxCell>
        <mxCell id="BYtep4n3CMpfXUwZE0sk-34" style="edgeStyle=orthogonalEdgeStyle;rounded=0;orthogonalLoop=1;jettySize=auto;html=1;exitX=1;exitY=0.5;exitDx=0;exitDy=0;entryX=0.5;entryY=1;entryDx=0;entryDy=0;" edge="1" parent="77e6c97f196da883-1" source="BYtep4n3CMpfXUwZE0sk-17" target="BYtep4n3CMpfXUwZE0sk-25">
          <mxGeometry relative="1" as="geometry" />
        </mxCell>
      </root>
    </mxGraphModel>
  </diagram>
</mxfile>
